<?xml version="1.0" encoding="utf-8"?>
<!-- Generator: Adobe Illustrator 22.1.0, SVG Export Plug-In . SVG Version: 6.00 Build 0)  -->
<svg version="1.1" id="Layer_1" xmlns="http://www.w3.org/2000/svg" xmlns:xlink="http://www.w3.org/1999/xlink" x="0px" y="0px"
	 viewBox="0 0 164.9 42" style="enable-background:new 0 0 164.9 42;" xml:space="preserve">
<style type="text/css">
	.st0{fill:#FFFFFF;}
</style>
<g>
	<path class="st0" d="M21,0c-6,0-11.5,2.6-15.3,6.7L11,9.9c1.8,1.1,4.4,1,6.9,1c0.6,0,1.2,0,1.9,0c0.6,0,1.2,0,1.7,0c0,0,0,0.1,0,0
		c0.5,0.1,1,0.2,1.5,0.2c0.3,0.1,0.5,0.1,0.7,0.2c0.2,0.1,0.4,0.1,0.6,0.2l5.4,3.2c-0.2,0.5-0.6,0.8-1.1,0.9c-0.6,0.1-1.4,0-1.9-0.3
		c0,0,0,0,0,0l-3.3-2c-0.3-0.2-0.7,0-0.8,0.2c-0.2,0.3-0.1,0.7,0.2,0.8l1.2,0.7c0.4,1.3,1.2,2.6,2.7,4.1l0,0l6.5,6.4
		c0.5,0.4,0.5,1,0.1,1.4L33,27.1c-0.3,0.3-1,0.3-1.4-0.1l-7.2-6.9L24.4,20l0,0l-0.4,0.4l-0.4,0.4l0.1,0.1l0.1,0.1l0.4,0.5l0,0
		l8.2,8.1c0.5,0.4,0.4,1,0.1,1.3l-0.2,0.2c-0.4,0.3-1,0.3-1.4-0.1l-2.6-2.6c-0.1,0-0.1-0.1-0.1-0.1l-2.5-2.5L22.6,23L21,21.6
		L20.6,22l-0.4,0.4l3.9,3.8l3.1,3.2c0.3,0.4,0.3,0.9-0.1,1.3c-0.4,0.4-1.1,0.4-1.5,0l-2.5-2.5l-4.5-4.3L17,22.2l0,0l-0.4,0.5
		l-0.4,0.5l1.8,1.7l4.5,4.3c0.4,0.4,0.4,1.1,0,1.5c-0.4,0.4-1.1,0.4-1.5,0L16,25.7l0-0.1l-0.8-0.8l-0.1,0l-0.1,0
		c-2.6-1.5-3.7-3.3-4.9-5.5l-0.1-0.1L9.8,19l-8.6-5.1C0.4,16.1,0,18.5,0,21c0,11.6,9.4,21,21,21c11.6,0,21-9.4,21-21
		C42,9.4,32.5,0,21,0z M21,40.8C10,40.8,1.1,31.9,1.1,21c0-1.8,0.3-3.6,0.8-5.3L9.1,20c1.2,2.1,2.5,4.1,5.2,5.8l0.1,0.1l0.8,0.7l0,0
		l4.8,4.9c0.9,0.9,2.3,0.9,3.2,0c0.3-0.3,0.3-0.7,0.4-1.1l1.3,1.2c0.9,0.9,2.4,0.9,3.3,0c0.3-0.3,0.3-0.6,0.4-0.9l1.4,1.4
		c0.9,0.9,2.3,0.9,3.1,0.1l0.2-0.2c0.1-0.1,0.2-0.2,0.3-0.3l0,0l0,0c0.5-0.8,0.3-2-0.4-2.8l-0.4-0.3c0.4,0,0.9-0.1,1.2-0.4l0.2-0.2
		c0.8-0.9,0.7-2.3-0.2-3.1l-6.5-6.4c-0.8-0.8-1.3-1.5-1.7-2.1l0.3,0.2c0.8,0.5,1.8,0.7,2.8,0.5c1-0.2,1.8-0.8,2.2-1.9c0,0,0,0,0-0.1
		c0-0.1,0,0,0-0.1l0,0c0,0,0,0,0,0l0-0.1c0-0.1,0-0.1,0-0.1c0-0.1,0-0.1,0-0.1l0-0.1c0-0.1-0.2-0.2-0.3-0.3l-5.9-3.5c0,0,0,0,0,0
		c-1.9-1-4.4-0.9-6.9-0.9c-2.6,0-4.9,0-6.2-0.8L7.5,6.4c3.5-3.3,8.3-5.3,13.4-5.3c11,0,19.9,8.9,19.9,19.9
		C40.8,31.9,31.9,40.8,21,40.8z"/>
	<g>
		<path class="st0" d="M57.7,27.1h-5.4V10.7h7.9c4.7,0,7,2.2,7,5.5c0,3.5-2.1,5.8-6.8,5.8h-2.7V27.1z M57.7,18.2h2.2
			c1.3,0,2.2-0.5,2.2-1.9c0-1.5-1.7-1.7-2.9-1.7h-1.5V18.2z"/>
		<path class="st0" d="M73,15.2l2.1,7.4l2.1-7.4h4.6l-3.8,11.1c-1.3,3.7-1.8,4.9-6,4.9c-0.5,0-1.6,0-2.1-0.1v-3.3
			c2,0,2.5-0.1,2.5-0.8c0-0.2-0.1-0.5-4.1-11.8H73z"/>
		<path class="st0" d="M91.3,19.8c0-0.9-0.7-1.7-1.7-1.7c-1.8,0-2.1,1.8-2.1,3.3c0,1.8,0.7,3,2.1,3c1.2,0,1.7-0.8,1.8-1.8h4.8
			c-0.4,3.6-3.3,5-6.6,5c-3.8,0-6.8-2.2-6.8-6.2c0-4.1,2.9-6.4,6.8-6.4c3.2,0,6.2,1.4,6.5,4.9H91.3z"/>
		<path class="st0" d="M109.9,10.7V17c0.5-1.3,1.8-2.1,3.3-2.1c3.2,0,4.6,2.9,4.6,6.2c0,4.7-2.4,6.4-4.8,6.4c-1.1,0-2.4-0.8-3.1-1.8
			v5.5h-4.3v-5.5c-0.7,1-2,1.8-3.1,1.8c-2.4,0-4.8-1.7-4.8-6.4c0-3.3,1.4-6.2,4.6-6.2c1.5,0,2.8,0.8,3.3,2.1v-6.2H109.9z
			 M105.6,21.1c0-1.6-0.6-2.7-1.6-2.7c-1,0-1.7,0.9-1.7,2.8c0,1.6,0.7,2.7,1.7,2.7C105,23.9,105.6,22.7,105.6,21.1z M113.2,21.2
			c0-1.9-0.7-2.8-1.7-2.8c-1,0-1.6,1.1-1.6,2.7c0,1.7,0.6,2.8,1.6,2.8C112.6,23.9,113.2,22.8,113.2,21.2z"/>
		<path class="st0" d="M126.2,14.9c4.2,0,6.8,2.5,6.8,6.2c0,4.4-3,6.4-6.8,6.4c-3.8,0-6.8-2.1-6.8-6.2
			C119.4,17.2,122.1,14.9,126.2,14.9z M124.1,21.1c0,2.3,0.8,3.2,2.1,3.2c1.3,0,2-1,2-3.2c0-1.8-0.8-3-2-3
			C124.6,18.1,124.1,19.7,124.1,21.1z"/>
		<path class="st0" d="M139.8,19.2h3.5v-4h4.7v11.9h-4.7v-4.5h-3.5v4.5H135V15.2h4.7V19.2z"/>
		<path class="st0" d="M163.6,15.2v9.2h1.3V30h-4.3v-2.8h-6.5V30h-4.3v-5.6h1.1c0.9-1.5,1.2-3.3,1.2-5.7v-3.5H163.6z M156.4,17.9V19
			c0,1.9-0.2,4.1-1.1,5.4h3.5v-6.5H156.4z"/>
	</g>
</g>
</svg>
